<?xml version="1.0" encoding="UTF-8"?>
<svg width="280" height="280" version="1.1" viewBox="0 0 280 280" xmlns="http://www.w3.org/2000/svg">
  <rect width="280" height="280" fill="#ffffff"/>
  <!-- QR Code Background -->
  <path d="M40 40h200v200h-200z" fill="#000"/>
  
  <!-- QR Code Modules (Example pattern) -->
  <path fill="#fff" d="
    M50 50h30v30h-30z M90 50h20v20h-20z M120 50h30v30h-30z M160 50h30v30h-30z M200 50h30v30h-30z
    M50 90h20v20h-20z M160 90h20v20h-20z M200 90h20v20h-20z
    M50 120h30v30h-30z M90 120h60v60h-60z M160 120h30v30h-30z M200 120h30v30h-30z
    M50 160h20v20h-20z M160 160h20v20h-20z M200 160h20v20h-20z
    M50 200h30v30h-30z M90 200h30v30h-30z M130 200h30v30h-30z M170 200h30v30h-30z M210 200h20v20h-20z
  "/>
  
  <!-- Telegram Logo Circle -->
  <circle cx="140" cy="140" r="35" fill="#3390EC"/>
  
  <!-- Telegram Plane Icon -->
  <path d="M165 125l-45 20c-1 0.5-1 1.5 0 2l12 8 28-26c0.5-0.5 1.5 0 1 0.5l-22 30v10l8-8 16 14c1 0.5 2 0 2-1l8-48c0.5-1.5-1.5-2.5-2.5-1.5z" fill="#fff"/>
</svg> 